<svg width="100" height="60" xmlns="http://www.w3.org/2000/svg" viewBox="135.2375061035156 14.595019531250003 229.52498779296874 120.8099609375" style="background: rgba(0, 0, 0, 0);" preserveAspectRatio="xMidYMid"><defs><filter id="editing-hole" x="-100%" y="-100%" width="300%" height="300%"><feFlood flood-color="#000000" result="black"></feFlood><feMorphology operator="dilate" radius="2" in="SourceGraphic" result="erode"></feMorphology><feGaussianBlur in="erode" stdDeviation="4" result="blur"></feGaussianBlur><feOffset in="blur" dx="2" dy="2" result="offset"></feOffset><feComposite operator="atop" in="offset" in2="black" result="merge"></feComposite><feComposite operator="in" in="merge" in2="SourceGraphic" result="inner-shadow"></feComposite></filter></defs><g filter="url(#editing-hole)"><g transform="translate(173.9050009250641, 98.68000030517578)"><path d="M28.42-9.86L28.42-9.86L28.42-9.86Q29.63-8.32 29.63-5.82L29.63-5.82L29.63-5.82Q29.63-2.37 27.07-0.54L27.07-0.54L27.07-0.54Q24.51 1.28 20.48 1.28L20.48 1.28L20.48 1.28Q18.18 1.28 14.66 0.77L14.66 0.77L14.66 0.77Q7.74-0.32 5.63-0.32L5.63-0.32L5.63-0.32Q3.52-0.32 2.69-0.22L2.69-0.22L2.69-0.22Q1.86-0.13 0.51 0L0.51 0L8.38-42.24L35.97-42.24L35.97-42.24Q35.97-38.34 34.08-36.29L34.08-36.29L34.08-36.29Q32.19-34.24 28.48-34.24L28.48-34.24L28.48-34.24Q24.77-34.24 20.99-35.97L20.99-35.97L19.01-24.77L30.40-24.77L30.40-24.77Q30.40-21.38 28.74-19.49L28.74-19.49L28.74-19.49Q27.07-17.60 24.29-17.60L24.29-17.60L24.29-17.60Q21.50-17.60 19.78-18.24L19.78-18.24L19.78-18.24Q18.05-18.88 17.86-19.07L17.86-19.07L15.55-6.98L15.55-6.98Q17.09-6.78 19.97-6.78L19.97-6.78L19.97-6.78Q24.90-6.78 28.42-9.86ZM62.59 1.28L62.59 1.28L62.59 1.28Q54.85 1.28 54.85-4.74L54.85-4.74L54.85-4.74Q54.91-6.40 55.42-9.22L55.42-9.22L56.58-15.10L56.58-15.10Q58.30-23.42 58.30-25.28L58.30-25.28L58.30-25.28Q58.30-28.99 56.13-28.99L56.13-28.99L56.13-28.99Q52.48-28.99 50.56-19.46L50.56-19.46L46.78 0L33.92 1.28L40.58-32.70L51.07-33.92L50.05-27.65L50.05-27.65Q53.06-33.92 62.27-33.92L62.27-33.92L62.27-33.92Q66.75-33.92 68.64-32.03L68.64-32.03L68.64-32.03Q70.53-30.14 70.53-25.92L70.53-25.92L70.53-25.92Q70.53-21.95 68.48-12.67L68.48-12.67L68.48-12.67Q67.52-8.51 67.52-6.94L67.52-6.94L67.52-6.94Q67.52-5.38 68.38-4.48L68.38-4.48L68.38-4.48Q69.25-3.58 70.53-3.46L70.53-3.46L70.53-3.46Q69.89-1.28 67.68 0L67.68 0L67.68 0Q65.47 1.28 62.59 1.28ZM74.82-3.07L74.82-3.07L82.75-44.80L95.74-46.08L93.76-36.29L93.76-36.29Q93.06-33.28 92.16-31.17L92.16-31.17L92.16-31.17Q93.57-32.96 96.64-33.66L96.64-33.66L96.64-33.66Q97.54-33.92 98.62-33.92L98.62-33.92L98.62-33.92Q104.58-33.92 107.84-30.30L107.84-30.30L107.84-30.30Q111.10-26.69 111.10-19.71L111.10-19.71L111.10-19.71Q111.10-10.62 105.92-4.93L105.92-4.93L105.92-4.93Q100.35 1.28 90.24 1.28L90.24 1.28L90.24 1.28Q83.26 1.28 78.02-1.02L78.02-1.02L78.02-1.02Q76.16-1.86 74.82-3.07ZM91.07-22.40L87.68-3.65L87.68-3.65Q89.02-2.50 90.69-2.50L90.69-2.50L90.69-2.50Q92.35-2.50 93.31-3.14L93.31-3.14L93.31-3.14Q94.27-3.78 94.98-5.06L94.98-5.06L94.98-5.06Q96.90-8.51 98.43-19.07L98.43-19.07L98.43-19.07Q98.88-22.08 98.88-25.09L98.88-25.09L98.88-25.09Q98.88-28.10 98.21-29.06L98.21-29.06L98.21-29.06Q97.54-30.02 96.26-30.02L96.26-30.02L96.26-30.02Q92.35-30.02 91.07-22.40L91.07-22.40ZM117.73-1.92L117.73-1.92L117.73-1.92Q116.22-3.58 115.55-6.21L115.55-6.21L115.55-6.21Q114.88-8.83 114.88-13.12L114.88-13.12L114.88-13.12Q114.88-17.41 116.35-21.31L116.35-21.31L116.35-21.31Q117.82-25.22 120.51-28.03L120.51-28.03L120.51-28.03Q126.02-33.92 135.10-33.92L135.10-33.92L135.10-33.92Q138.37-33.92 140.74-32.83L140.74-32.83L151.68-33.92L146.94-8.96L146.94-8.96Q146.75-8.19 146.75-6.78L146.75-6.78L146.75-6.78Q146.75-5.38 147.62-4.48L147.62-4.48L147.62-4.48Q148.48-3.58 149.76-3.46L149.76-3.46L149.76-3.46Q149.12-1.28 146.78 0L146.78 0L146.78 0Q144.45 1.28 141.82 1.28L141.82 1.28L141.82 1.28Q139.20 1.28 137.44 0.29L137.44 0.29L137.44 0.29Q135.68-0.70 135.17-2.37L135.17-2.37L135.17-2.37Q134.14-0.77 131.97 0.26L131.97 0.26L131.97 0.26Q129.79 1.28 126.88 1.28L126.88 1.28L126.88 1.28Q123.97 1.28 121.60 0.51L121.60 0.51L121.60 0.51Q119.23-0.26 117.73-1.92ZM131.23-27.90L131.23-27.90L131.23-27.90Q130.50-26.75 129.86-24.80L129.86-24.80L129.86-24.80Q129.22-22.85 128.16-17.63L128.16-17.63L128.16-17.63Q127.10-12.42 127.10-8.70L127.10-8.70L127.10-8.70Q127.10-4.99 127.68-3.90L127.68-3.90L127.68-3.90Q128.26-2.82 129.28-2.82L129.28-2.82L129.28-2.82Q131.33-2.82 132.83-4.77L132.83-4.77L132.83-4.77Q134.34-6.72 134.91-10.18L134.91-10.18L138.30-28.93L138.30-28.93Q136.96-30.08 135.39-30.08L135.39-30.08L135.39-30.08Q133.82-30.08 132.90-29.57L132.90-29.57L132.90-29.57Q131.97-29.06 131.23-27.90Z" fill="#ccc"></path></g></g><style>text {
  font-size: 80px;
  font-family: Arial Black;
  dominant-baseline: central;
  text-anchor: middle;
}</style></svg>
